<?xml version="1.0" encoding="UTF-8"?>
<svg id="_레이어_1" data-name="레이어_1" xmlns="http://www.w3.org/2000/svg" viewBox="0 0 525 525">
  <defs>
    <style>
      .cls-1 {
        stroke-width: 37px;
      }

      .cls-1, .cls-2 {
        stroke: #4997d3;
      }

      .cls-1, .cls-2, .cls-3 {
        fill: none;
        stroke-linecap: round;
        stroke-linejoin: round;
      }

      .cls-2, .cls-3 {
        stroke-width: 12px;
      }

      .cls-3 {
        stroke: #fff;
      }

      .cls-4 {
        fill: #4997d3;
      }
    </style>
  </defs>
  <path class="cls-1" d="M261.94,241.43c-14.31,26.44-22.38,61.33-21.03,99.4.21,6.1.67,12.12,1.33,18.01-51.8-34.6-81.73-84.35-76.6-124.14"/>
  <path class="cls-2" d="M355.42,144.63c27.82-8.23,59.01-5.35,86.27,10.5,15.73,9.15,28.36,21.57,37.49,35.87-15.66,1.87-31.05,5.55-45.8,10.98-.9.33-1.79.66-2.67,1"/>
  <path class="cls-2" d="M430.7,202.99c.88-.34,1.77-.67,2.67-1,14.75-5.43,30.14-9.12,45.8-10.98"/>
  <path class="cls-2" d="M430.7,202.99c-7.16,2.74-14.16,5.9-20.96,9.45,2.65,3.66,5.2,7.36,7.65,11.14h.01c21.31,32.72,35.15,69.51,40.79,107.6"/>
  <path class="cls-2" d="M461.02,365.15c-.22-11.39-1.17-22.74-2.83-33.97"/>
  <path class="cls-3" d="M165.39,234.21c-.63,4.88-.73,9.92-.33,15.06.32,4.09.96,8.24,1.9,12.44h0c1.97,8.79,5.31,17.78,9.88,26.73.55,1.1,1.13,2.2,1.73,3.3,13.07,24,34.93,47.59,63.41,66.61-.67-5.9-1.12-11.92-1.34-18.01-.75-21.06,1.39-41.15,5.87-59.37,3.62-14.72,8.77-28.22,15.16-40.03"/>
  <path class="cls-2" d="M303.23,125.03c17.69,4.45,35.21,10.96,52.19,19.59"/>
  <path class="cls-2" d="M31.01,222.21s.01-.03.02-.04c1.11-2,2.4-3.97,3.86-5.89,0-.02.02-.04.03-.05,3.6-4.76,8.19-9.24,13.67-13.09,8.56-6.03,17.85-9.56,26.49-10.57,54.73-63.4,143.55-88.85,228.15-67.54"/>
  <path class="cls-2" d="M327.02,335.96c-24.06-21.21-39.08-36.46-68.27-51.6"/>
  <path class="cls-2" d="M38.88,234.55c1.83-.05,3.66-.1,5.49-.13,2.46-.04,4.92-.06,7.38-.06,39,0,64.38,3.29,100,13"/>
  <path class="cls-2" d="M261.75,407.36c42.17-65.81,67.86-77.55,84-74,25.92,5.7,27.24,50.85,55,59,28.6,8.4,65.16-28.4,94-65"/>
  <path class="cls-2" d="M34.92,216.23s-.02.03-.03.05c-1.78,1.89-3.1,3.9-3.86,5.89,0,.01-.02.02-.02.04-.97,2.53-1.05,5.01-.04,7.15,1.42,2.99,4.72,4.75,8.91,5.19,1.7.18,3.55.14,5.49-.13"/>
  <path class="cls-4" d="M171.75,225.36c1.35,2.72,3.24,6.83,5,12,3.78,11.08,4.34,19.26,5,24,2.2,15.9,10.15,27.55,20,42,3.69,5.41,19.65,28.82,26,26,3.64-1.62.62-10.31,1-28,.28-13,1.16-39.1,17-59,3.94-4.95,7.34-12.06,14-13,4.54-.64,8.32,1.59,9,2,5.73,3.49,6.81,9.86,7,11,1.15,6.79-5.58,8.26-9,19-1.01,3.16-4.58,13.52-2.75,19.64.83,2.77,4.4,1.77,12.75,8.36,11.93,9.42,12.76,10.38,23.25,18.64,2.59,2.04,2.83.93,17,14,10.53,9.71,12.26,7.7,13.75,8.36,9.83,4.38,14.76-1.43,24,3,4.92,2.36,7.55,5.94,12,12,6.27,8.53,5.35,11.63,11,21,4.17,6.91,8.47,14.04,17,19,10.12,5.88,20.23,5.22,23,5,12.58-.99,20.87-7.61,25-11,3.06-2.52,12.65-10.38,16-23,2.78-10.44-.24-18.39-5-33-14.53-44.62-9.38-41.15-19-63-9.79-22.25-14.92-33.27-22-40-2.95-2.81-6.41-5.55-6-9,.83-7.06,17.14-11.28,36-16,18.39-4.6,25.63-4.64,27-9,2.04-6.48-10.96-15.9-18-21-4.45-3.22-54.73-38.94-81-23-3.51,2.13-9.98,7.24-18,6-5.81-.9-9.62-4.7-11-6-17.1-16.05-59.28-20-70-21-16.51-1.55-28.1-.24-48,2-14.24,1.6-33.47,3.88-57,12-16.43,5.67-27.89,11.75-32,14-9.42,5.15-15.07,8.24-22,14-13.13,10.9-16.42,19.35-31,28-4.67,2.77-10,5-10,5-9.21,4.11-10.57,3.39-16,6-4.44,2.13-14.8,8.03-19,19-1.25,3.27-2.49,6.5-1,9,2.82,4.75,13.02,2.89,23,2,0,0,23.17-2.07,45,2,23.39,4.36,33.83,14.77,41,9,5.31-4.27,2.49-12.3,9-17,5.25-3.79,12.63-2.59,18-1Z"/>
</svg>