<?xml version="1.0" encoding="UTF-8"?>
<svg width="60" height="60" viewBox="0 0 60 60" fill="none" xmlns="http://www.w3.org/2000/svg">
  <rect width="60" height="60" rx="8" fill="#F7FAFC"/>
  <path d="M30 20C25.5817 20 22 23.5817 22 28C22 32.4183 25.5817 36 30 36C34.4183 36 38 32.4183 38 28C38 23.5817 34.4183 20 30 20ZM30 34C26.6863 34 24 31.3137 24 28C24 24.6863 26.6863 22 30 22C33.3137 22 36 24.6863 36 28C36 31.3137 33.3137 34 30 34Z" fill="#CBD5E0"/>
  <path d="M30 24C28.8954 24 28 24.8954 28 26V30C28 31.1046 28.8954 32 30 32C31.1046 32 32 31.1046 32 30V26C32 24.8954 31.1046 24 30 24Z" fill="#CBD5E0"/>
  <path d="M30 33C30.5523 33 31 32.5523 31 32C31 31.4477 30.5523 31 30 31C29.4477 31 29 31.4477 29 32C29 32.5523 29.4477 33 30 33Z" fill="#CBD5E0"/>
</svg> 